<?xml version="1.0" encoding="UTF-8" standalone="no"?>
<svg
   xmlns:dc="http://purl.org/dc/elements/1.1/"
   xmlns:cc="http://creativecommons.org/ns#"
   xmlns:rdf="http://www.w3.org/1999/02/22-rdf-syntax-ns#"
   xmlns:svg="http://www.w3.org/2000/svg"
   xmlns="http://www.w3.org/2000/svg"
   style="fill:#000000"
   id="svg4"
   version="1.1"
   height="23.999775"
   width="23.999775"
   viewBox="0 0 23.999775 23.999775">
  <metadata
     id="metadata10">
    <rdf:RDF>
      <cc:Work
         rdf:about="">
        <dc:format>image/svg+xml</dc:format>
        <dc:type
           rdf:resource="http://purl.org/dc/dcmitype/StillImage" />
      </cc:Work>
    </rdf:RDF>
  </metadata>
  <defs
     id="defs8" />
  <path
     id="path2"
     d="m 13.261719,14.867188 2.480469,2.480468 c -0.378907,0.722657 -0.417969,1.441407 -0.01953,1.839844 L 20.25,23.714844 c 0.570313,0.570312 1.8125,0.257812 2.765625,-0.699219 0.957031,-0.957031 1.269531,-2.195312 0.699219,-2.765625 l -4.523438,-4.527344 c -0.402343,-0.398437 -1.121093,-0.359375 -1.84375,0.01563 L 14.867188,13.261719 Z M 8.5,0 C 3.804688,0 0,3.804688 0,8.5 0,13.195313 3.804688,17 8.5,17 13.195313,17 17,13.195313 17,8.5 17,3.804688 13.195313,0 8.5,0 Z m 0,15 C 4.910156,15 2,12.089844 2,8.5 2,4.910156 4.910156,2 8.5,2 12.089844,2 15,4.910156 15,8.5 15,12.089844 12.089844,15 8.5,15 Z" />
</svg>
